{
	"patcher" : 	{
		"fileversion" : 1,
		"appversion" : 		{
			"major" : 7,
			"minor" : 0,
			"revision" : 1,
			"architecture" : "x86",
			"modernui" : 1
		}
,
		"rect" : [ 403.0, 212.0, 698.0, 477.0 ],
		"bgcolor" : [ 1.0, 1.0, 1.0, 1.0 ],
		"editing_bgcolor" : [ 1.0, 1.0, 1.0, 1.0 ],
		"bglocked" : 0,
		"openinpresentation" : 1,
		"default_fontsize" : 12.0,
		"default_fontface" : 0,
		"default_fontname" : "Arial",
		"gridonopen" : 1,
		"gridsize" : [ 15.0, 15.0 ],
		"gridsnaponopen" : 1,
		"objectsnaponopen" : 1,
		"statusbarvisible" : 2,
		"toolbarvisible" : 1,
		"lefttoolbarpinned" : 0,
		"toptoolbarpinned" : 0,
		"righttoolbarpinned" : 0,
		"bottomtoolbarpinned" : 0,
		"toolbars_unpinned_last_save" : 0,
		"tallnewobj" : 0,
		"boxanimatetime" : 200,
		"enablehscroll" : 0,
		"enablevscroll" : 0,
		"devicewidth" : 0.0,
		"description" : "",
		"digest" : "",
		"tags" : "",
		"style" : "",
		"subpatcher_template" : "",
		"title" : "Ear Training",
		"boxes" : [ 			{
				"box" : 				{
					"id" : "obj-71",
					"items" : [ "major", ",", "minor", ",", "diminished", ",", "augmented" ],
					"maxclass" : "umenu",
					"numinlets" : 1,
					"numoutlets" : 3,
					"outlettype" : [ "int", "", "" ],
					"parameter_enable" : 0,
					"patching_rect" : [ 580.0, 263.0, 100.0, 22.0 ],
					"presentation" : 1,
					"presentation_rect" : [ 250.0, 143.0, 100.0, 22.0 ],
					"style" : "MMJforM"
				}

			}
, 			{
				"box" : 				{
					"id" : "obj-69",
					"maxclass" : "button",
					"numinlets" : 1,
					"numoutlets" : 1,
					"outlettype" : [ "bang" ],
					"patching_rect" : [ 84.461517, 388.182678, 20.0, 20.0 ],
					"style" : "MMJforM"
				}

			}
, 			{
				"box" : 				{
					"id" : "obj-70",
					"maxclass" : "newobj",
					"numinlets" : 2,
					"numoutlets" : 1,
					"outlettype" : [ "" ],
					"patching_rect" : [ 84.461517, 351.313354, 57.0, 22.0 ],
					"style" : "MMJforM",
					"text" : "pipe 600"
				}

			}
, 			{
				"box" : 				{
					"id" : "obj-68",
					"maxclass" : "newobj",
					"numinlets" : 2,
					"numoutlets" : 1,
					"outlettype" : [ "int" ],
					"patching_rect" : [ 423.0, 450.516541, 33.0, 22.0 ],
					"style" : "MMJforM",
					"text" : "int"
				}

			}
, 			{
				"box" : 				{
					"id" : "obj-66",
					"maxclass" : "number",
					"numinlets" : 1,
					"numoutlets" : 2,
					"outlettype" : [ "", "bang" ],
					"parameter_enable" : 0,
					"patching_rect" : [ 423.0, 308.0, 48.0, 22.0 ],
					"style" : "MMJforM"
				}

			}
, 			{
				"box" : 				{
					"id" : "obj-67",
					"maxclass" : "number",
					"numinlets" : 1,
					"numoutlets" : 2,
					"outlettype" : [ "", "bang" ],
					"parameter_enable" : 0,
					"patching_rect" : [ 365.0, 308.0, 48.0, 22.0 ],
					"style" : "MMJforM"
				}

			}
, 			{
				"box" : 				{
					"id" : "obj-64",
					"maxclass" : "newobj",
					"numinlets" : 2,
					"numoutlets" : 1,
					"outlettype" : [ "int" ],
					"patching_rect" : [ 423.0, 336.0, 34.0, 22.0 ],
					"style" : "MMJforM",
					"text" : "+ 48"
				}

			}
, 			{
				"box" : 				{
					"id" : "obj-65",
					"maxclass" : "number",
					"numinlets" : 1,
					"numoutlets" : 2,
					"outlettype" : [ "", "bang" ],
					"parameter_enable" : 0,
					"patching_rect" : [ 423.0, 366.0, 48.0, 22.0 ],
					"style" : "MMJforM"
				}

			}
, 			{
				"box" : 				{
					"id" : "obj-63",
					"maxclass" : "button",
					"numinlets" : 1,
					"numoutlets" : 1,
					"outlettype" : [ "bang" ],
					"patching_rect" : [ 453.0, 156.0, 20.0, 20.0 ],
					"style" : "MMJforM"
				}

			}
, 			{
				"box" : 				{
					"id" : "obj-62",
					"maxclass" : "button",
					"numinlets" : 1,
					"numoutlets" : 1,
					"outlettype" : [ "bang" ],
					"patching_rect" : [ 430.0, 157.0, 20.0, 20.0 ],
					"style" : "MMJforM"
				}

			}
, 			{
				"box" : 				{
					"id" : "obj-60",
					"maxclass" : "number",
					"numinlets" : 1,
					"numoutlets" : 2,
					"outlettype" : [ "", "bang" ],
					"parameter_enable" : 0,
					"patching_rect" : [ 379.0, 79.0, 50.0, 22.0 ],
					"style" : "MMJforM"
				}

			}
, 			{
				"box" : 				{
					"id" : "obj-58",
					"maxclass" : "button",
					"numinlets" : 1,
					"numoutlets" : 1,
					"outlettype" : [ "bang" ],
					"patching_rect" : [ 404.0, 157.0, 20.0, 20.0 ],
					"style" : "MMJforM"
				}

			}
, 			{
				"box" : 				{
					"id" : "obj-53",
					"maxclass" : "button",
					"numinlets" : 1,
					"numoutlets" : 1,
					"outlettype" : [ "bang" ],
					"patching_rect" : [ 379.0, 159.0, 20.0, 20.0 ],
					"style" : "MMJforM"
				}

			}
, 			{
				"box" : 				{
					"id" : "obj-46",
					"maxclass" : "message",
					"numinlets" : 2,
					"numoutlets" : 1,
					"outlettype" : [ "" ],
					"patching_rect" : [ 444.0, 223.0, 27.0, 22.0 ],
					"style" : "MMJforM",
					"text" : "6"
				}

			}
, 			{
				"box" : 				{
					"id" : "obj-43",
					"maxclass" : "message",
					"numinlets" : 2,
					"numoutlets" : 1,
					"outlettype" : [ "" ],
					"patching_rect" : [ 480.0, 224.0, 27.0, 22.0 ],
					"style" : "MMJforM",
					"text" : "7"
				}

			}
, 			{
				"box" : 				{
					"id" : "obj-44",
					"maxclass" : "message",
					"numinlets" : 2,
					"numoutlets" : 1,
					"outlettype" : [ "" ],
					"patching_rect" : [ 516.0, 223.0, 27.0, 22.0 ],
					"style" : "MMJforM",
					"text" : "8"
				}

			}
, 			{
				"box" : 				{
					"id" : "obj-42",
					"maxclass" : "message",
					"numinlets" : 2,
					"numoutlets" : 1,
					"outlettype" : [ "" ],
					"patching_rect" : [ 344.0, 225.0, 27.0, 22.0 ],
					"style" : "MMJforM",
					"text" : "3"
				}

			}
, 			{
				"box" : 				{
					"id" : "obj-41",
					"maxclass" : "message",
					"numinlets" : 2,
					"numoutlets" : 1,
					"outlettype" : [ "" ],
					"patching_rect" : [ 380.0, 225.0, 27.0, 22.0 ],
					"style" : "MMJforM",
					"text" : "4"
				}

			}
, 			{
				"box" : 				{
					"id" : "obj-36",
					"maxclass" : "newobj",
					"numinlets" : 2,
					"numoutlets" : 1,
					"outlettype" : [ "int" ],
					"patching_rect" : [ 423.0, 276.0, 33.0, 22.0 ],
					"style" : "MMJforM",
					"text" : "+"
				}

			}
, 			{
				"box" : 				{
					"id" : "obj-35",
					"maxclass" : "newobj",
					"numinlets" : 2,
					"numoutlets" : 1,
					"outlettype" : [ "int" ],
					"patching_rect" : [ 365.0, 276.0, 33.0, 22.0 ],
					"style" : "MMJforM",
					"text" : "+"
				}

			}
, 			{
				"box" : 				{
					"id" : "obj-26",
					"maxclass" : "newobj",
					"numinlets" : 2,
					"numoutlets" : 1,
					"outlettype" : [ "int" ],
					"patching_rect" : [ 379.0, 52.0, 61.0, 22.0 ],
					"style" : "MMJforM",
					"text" : "random 4"
				}

			}
, 			{
				"box" : 				{
					"id" : "obj-25",
					"maxclass" : "newobj",
					"numinlets" : 5,
					"numoutlets" : 5,
					"outlettype" : [ "bang", "bang", "bang", "bang", "" ],
					"patching_rect" : [ 379.0, 126.0, 73.0, 22.0 ],
					"style" : "MMJforM",
					"text" : "sel 0 1 2 3"
				}

			}
, 			{
				"box" : 				{
					"id" : "obj-22",
					"maxclass" : "comment",
					"numinlets" : 1,
					"numoutlets" : 0,
					"patching_rect" : [ 496.0, 150.0, 114.0, 20.0 ],
					"style" : "MMJforM",
					"text" : "the correct answer"
				}

			}
, 			{
				"box" : 				{
					"id" : "obj-12",
					"maxclass" : "button",
					"numinlets" : 1,
					"numoutlets" : 1,
					"outlettype" : [ "bang" ],
					"patching_rect" : [ 580.228394, 365.834839, 20.0, 20.0 ],
					"style" : "MMJforM"
				}

			}
, 			{
				"box" : 				{
					"id" : "obj-57",
					"linecount" : 2,
					"maxclass" : "comment",
					"numinlets" : 1,
					"numoutlets" : 0,
					"patching_rect" : [ 617.985535, 224.637268, 89.0, 33.0 ],
					"presentation" : 1,
					"presentation_rect" : [ 228.985535, 124.637268, 135.0, 20.0 ],
					"style" : "MMJforM",
					"text" : "Choose a chord quality"
				}

			}
, 			{
				"box" : 				{
					"id" : "obj-56",
					"maxclass" : "comment",
					"numinlets" : 1,
					"numoutlets" : 0,
					"patching_rect" : [ 231.947998, 14.585297, 83.0, 20.0 ],
					"presentation" : 1,
					"presentation_linecount" : 2,
					"presentation_rect" : [ 314.947998, 22.585285, 52.0, 33.0 ],
					"style" : "MMJforM",
					"text" : "Create chord"
				}

			}
, 			{
				"box" : 				{
					"id" : "obj-55",
					"linecount" : 2,
					"maxclass" : "comment",
					"numinlets" : 1,
					"numoutlets" : 0,
					"patching_rect" : [ 11.47531, 270.5, 89.0, 33.0 ],
					"presentation" : 1,
					"presentation_linecount" : 2,
					"presentation_rect" : [ 360.803802, 70.934784, 89.0, 33.0 ],
					"style" : "MMJforM",
					"text" : "replay interval melodically"
				}

			}
, 			{
				"box" : 				{
					"id" : "obj-54",
					"linecount" : 2,
					"maxclass" : "comment",
					"numinlets" : 1,
					"numoutlets" : 0,
					"patching_rect" : [ 160.803833, 311.36731, 89.0, 33.0 ],
					"presentation" : 1,
					"presentation_linecount" : 2,
					"presentation_rect" : [ 244.803818, 70.934784, 89.0, 33.0 ],
					"style" : "MMJforM",
					"text" : "replay interval harmonically"
				}

			}
, 			{
				"box" : 				{
					"blinktime" : 2000,
					"id" : "obj-52",
					"ignoreclick" : 1,
					"maxclass" : "led",
					"numinlets" : 1,
					"numoutlets" : 1,
					"offcolor" : [ 0.341176, 0.027451, 0.023529, 1.0 ],
					"oncolor" : [ 0.784314, 0.145098, 0.023529, 1.0 ],
					"outlettype" : [ "int" ],
					"parameter_enable" : 0,
					"patching_rect" : [ 603.0, 408.371765, 20.0, 20.0 ],
					"presentation" : 1,
					"presentation_rect" : [ 332.281128, 174.371735, 51.0, 51.0 ],
					"style" : "MMJforM"
				}

			}
, 			{
				"box" : 				{
					"blinktime" : 2000,
					"id" : "obj-51",
					"ignoreclick" : 1,
					"maxclass" : "led",
					"numinlets" : 1,
					"numoutlets" : 1,
					"offcolor" : [ 0.019608, 0.254902, 0.035294, 1.0 ],
					"oncolor" : [ 0.439216, 0.74902, 0.254902, 1.0 ],
					"outlettype" : [ "int" ],
					"parameter_enable" : 0,
					"patching_rect" : [ 579.569275, 408.371765, 20.0, 20.0 ],
					"presentation" : 1,
					"presentation_rect" : [ 216.850403, 174.371735, 51.0, 51.0 ],
					"style" : "MMJforM"
				}

			}
, 			{
				"box" : 				{
					"id" : "obj-50",
					"maxclass" : "comment",
					"numinlets" : 1,
					"numoutlets" : 0,
					"patching_rect" : [ 555.237732, 434.182678, 46.0, 20.0 ],
					"presentation" : 1,
					"presentation_rect" : [ 217.252197, 227.182648, 46.0, 20.0 ],
					"style" : "MMJforM",
					"text" : "correct"
				}

			}
, 			{
				"box" : 				{
					"id" : "obj-49",
					"maxclass" : "comment",
					"numinlets" : 1,
					"numoutlets" : 0,
					"patching_rect" : [ 604.551392, 434.182678, 60.0, 20.0 ],
					"presentation" : 1,
					"presentation_rect" : [ 331.565857, 228.182648, 60.0, 20.0 ],
					"style" : "MMJforM",
					"text" : "incorrect"
				}

			}
, 			{
				"box" : 				{
					"id" : "obj-47",
					"maxclass" : "button",
					"numinlets" : 1,
					"numoutlets" : 1,
					"outlettype" : [ "bang" ],
					"patching_rect" : [ 603.149597, 365.834839, 20.0, 20.0 ],
					"style" : "MMJforM"
				}

			}
, 			{
				"box" : 				{
					"id" : "obj-40",
					"maxclass" : "number",
					"numinlets" : 1,
					"numoutlets" : 2,
					"outlettype" : [ "", "bang" ],
					"parameter_enable" : 0,
					"patching_rect" : [ 579.985535, 292.637268, 50.0, 22.0 ],
					"style" : "MMJforM"
				}

			}
, 			{
				"box" : 				{
					"id" : "obj-38",
					"maxclass" : "newobj",
					"numinlets" : 2,
					"numoutlets" : 2,
					"outlettype" : [ "bang", "" ],
					"patching_rect" : [ 579.985535, 331.36731, 42.0, 22.0 ],
					"style" : "MMJforM",
					"text" : "select"
				}

			}
, 			{
				"box" : 				{
					"id" : "obj-34",
					"maxclass" : "button",
					"numinlets" : 1,
					"numoutlets" : 1,
					"outlettype" : [ "bang" ],
					"patching_rect" : [ 24.461517, 388.182678, 20.0, 20.0 ],
					"style" : "MMJforM"
				}

			}
, 			{
				"box" : 				{
					"id" : "obj-32",
					"maxclass" : "button",
					"numinlets" : 1,
					"numoutlets" : 1,
					"outlettype" : [ "bang" ],
					"patching_rect" : [ 11.397659, 307.290009, 20.0, 20.0 ],
					"presentation" : 1,
					"presentation_rect" : [ 336.093475, 76.31337, 26.0, 26.0 ],
					"style" : "MMJforM"
				}

			}
, 			{
				"box" : 				{
					"id" : "obj-31",
					"maxclass" : "newobj",
					"numinlets" : 2,
					"numoutlets" : 1,
					"outlettype" : [ "" ],
					"patching_rect" : [ 24.461517, 351.313354, 57.0, 22.0 ],
					"style" : "MMJforM",
					"text" : "pipe 300"
				}

			}
, 			{
				"box" : 				{
					"id" : "obj-30",
					"maxclass" : "button",
					"numinlets" : 1,
					"numoutlets" : 1,
					"outlettype" : [ "bang" ],
					"patching_rect" : [ 185.093506, 350.313354, 20.0, 20.0 ],
					"presentation" : 1,
					"presentation_rect" : [ 220.093491, 76.31337, 26.0, 26.0 ],
					"style" : "MMJforM"
				}

			}
, 			{
				"box" : 				{
					"id" : "obj-28",
					"maxclass" : "newobj",
					"numinlets" : 2,
					"numoutlets" : 1,
					"outlettype" : [ "int" ],
					"patching_rect" : [ 365.0, 450.516541, 33.0, 22.0 ],
					"style" : "MMJforM",
					"text" : "int"
				}

			}
, 			{
				"box" : 				{
					"id" : "obj-27",
					"maxclass" : "newobj",
					"numinlets" : 2,
					"numoutlets" : 1,
					"outlettype" : [ "int" ],
					"patching_rect" : [ 265.0, 450.516541, 33.0, 22.0 ],
					"style" : "MMJforM",
					"text" : "int"
				}

			}
, 			{
				"box" : 				{
					"id" : "obj-24",
					"items" : [ "major", ",", "minor", ",", "diminished", ",", "augmented" ],
					"maxclass" : "umenu",
					"numinlets" : 1,
					"numoutlets" : 3,
					"outlettype" : [ "int", "", "" ],
					"parameter_enable" : 0,
					"patching_rect" : [ 496.0, 126.0, 100.0, 22.0 ],
					"style" : "MMJforM"
				}

			}
, 			{
				"box" : 				{
					"id" : "obj-19",
					"maxclass" : "newobj",
					"numinlets" : 2,
					"numoutlets" : 1,
					"outlettype" : [ "int" ],
					"patching_rect" : [ 365.0, 336.0, 34.0, 22.0 ],
					"style" : "MMJforM",
					"text" : "+ 48"
				}

			}
, 			{
				"box" : 				{
					"id" : "obj-18",
					"maxclass" : "number",
					"numinlets" : 1,
					"numoutlets" : 2,
					"outlettype" : [ "", "bang" ],
					"parameter_enable" : 0,
					"patching_rect" : [ 365.0, 366.0, 48.0, 22.0 ],
					"style" : "MMJforM"
				}

			}
, 			{
				"box" : 				{
					"id" : "obj-17",
					"maxclass" : "number",
					"numinlets" : 1,
					"numoutlets" : 2,
					"outlettype" : [ "", "bang" ],
					"parameter_enable" : 0,
					"patching_rect" : [ 265.0, 366.0, 50.0, 22.0 ],
					"style" : "MMJforM"
				}

			}
, 			{
				"box" : 				{
					"id" : "obj-13",
					"maxclass" : "button",
					"numinlets" : 1,
					"numoutlets" : 1,
					"outlettype" : [ "bang" ],
					"patching_rect" : [ 208.0, 14.0, 20.0, 20.0 ],
					"presentation" : 1,
					"presentation_rect" : [ 269.0, 19.0, 45.0, 45.0 ],
					"style" : "MMJforM"
				}

			}
, 			{
				"box" : 				{
					"id" : "obj-11",
					"maxclass" : "newobj",
					"numinlets" : 3,
					"numoutlets" : 0,
					"patching_rect" : [ 273.132324, 608.341614, 51.0, 22.0 ],
					"style" : "MMJforM",
					"text" : "noteout"
				}

			}
, 			{
				"box" : 				{
					"id" : "obj-10",
					"maxclass" : "newobj",
					"numinlets" : 3,
					"numoutlets" : 2,
					"outlettype" : [ "float", "float" ],
					"patching_rect" : [ 273.132324, 505.479248, 111.0, 22.0 ],
					"style" : "MMJforM",
					"text" : "makenote 100 500"
				}

			}
, 			{
				"box" : 				{
					"id" : "obj-9",
					"maxclass" : "kslider",
					"mode" : 1,
					"numinlets" : 2,
					"numoutlets" : 2,
					"outlettype" : [ "int", "int" ],
					"parameter_enable" : 0,
					"patching_rect" : [ 273.132324, 545.567444, 196.0, 34.0 ],
					"presentation_rect" : [ 0.0, 0.0, 336.0, 53.0 ],
					"style" : "MMJforM"
				}

			}
, 			{
				"box" : 				{
					"id" : "obj-8",
					"maxclass" : "newobj",
					"numinlets" : 2,
					"numoutlets" : 1,
					"outlettype" : [ "int" ],
					"patching_rect" : [ 265.0, 300.0, 34.0, 22.0 ],
					"style" : "MMJforM",
					"text" : "+ 48"
				}

			}
, 			{
				"box" : 				{
					"id" : "obj-3",
					"maxclass" : "number",
					"numinlets" : 1,
					"numoutlets" : 2,
					"outlettype" : [ "", "bang" ],
					"parameter_enable" : 0,
					"patching_rect" : [ 208.0, 76.0, 50.0, 22.0 ],
					"style" : "MMJforM"
				}

			}
, 			{
				"box" : 				{
					"id" : "obj-1",
					"maxclass" : "newobj",
					"numinlets" : 2,
					"numoutlets" : 1,
					"outlettype" : [ "int" ],
					"patching_rect" : [ 208.0, 50.0, 68.0, 22.0 ],
					"style" : "MMJforM",
					"text" : "random 12"
				}

			}
, 			{
				"box" : 				{
					"id" : "obj-2",
					"maxclass" : "fpic",
					"numinlets" : 1,
					"numoutlets" : 1,
					"outlettype" : [ "jit_matrix" ],
					"patching_rect" : [ 551.985535, 460.0, 106.0, 74.0 ],
					"pic" : "somepicture.png",
					"presentation" : 1,
					"presentation_rect" : [ -20.0, -102.0, 759.0, 583.0 ]
				}

			}
 ],
		"lines" : [ 			{
				"patchline" : 				{
					"destination" : [ "obj-3", 0 ],
					"disabled" : 0,
					"hidden" : 0,
					"source" : [ "obj-1", 0 ]
				}

			}
, 			{
				"patchline" : 				{
					"destination" : [ "obj-9", 1 ],
					"disabled" : 0,
					"hidden" : 0,
					"midpoints" : [ 374.632324, 540.02832, 459.632324, 540.02832 ],
					"source" : [ "obj-10", 1 ]
				}

			}
, 			{
				"patchline" : 				{
					"destination" : [ "obj-9", 0 ],
					"disabled" : 0,
					"hidden" : 0,
					"source" : [ "obj-10", 0 ]
				}

			}
, 			{
				"patchline" : 				{
					"destination" : [ "obj-51", 0 ],
					"disabled" : 0,
					"hidden" : 0,
					"source" : [ "obj-12", 0 ]
				}

			}
, 			{
				"patchline" : 				{
					"destination" : [ "obj-1", 0 ],
					"disabled" : 0,
					"hidden" : 0,
					"midpoints" : [ 217.5, 45.0, 217.5, 45.0 ],
					"source" : [ "obj-13", 0 ]
				}

			}
, 			{
				"patchline" : 				{
					"destination" : [ "obj-26", 0 ],
					"disabled" : 0,
					"hidden" : 0,
					"midpoints" : [ 217.5, 44.0, 388.5, 44.0 ],
					"source" : [ "obj-13", 0 ]
				}

			}
, 			{
				"patchline" : 				{
					"destination" : [ "obj-27", 0 ],
					"disabled" : 0,
					"hidden" : 0,
					"source" : [ "obj-17", 0 ]
				}

			}
, 			{
				"patchline" : 				{
					"destination" : [ "obj-28", 0 ],
					"disabled" : 0,
					"hidden" : 0,
					"source" : [ "obj-18", 0 ]
				}

			}
, 			{
				"patchline" : 				{
					"destination" : [ "obj-18", 0 ],
					"disabled" : 0,
					"hidden" : 0,
					"source" : [ "obj-19", 0 ]
				}

			}
, 			{
				"patchline" : 				{
					"destination" : [ "obj-53", 0 ],
					"disabled" : 0,
					"hidden" : 0,
					"midpoints" : [ 388.5, 155.0, 388.5, 155.0 ],
					"source" : [ "obj-25", 0 ]
				}

			}
, 			{
				"patchline" : 				{
					"destination" : [ "obj-58", 0 ],
					"disabled" : 0,
					"hidden" : 0,
					"midpoints" : [ 402.0, 154.0, 413.5, 154.0 ],
					"source" : [ "obj-25", 1 ]
				}

			}
, 			{
				"patchline" : 				{
					"destination" : [ "obj-62", 0 ],
					"disabled" : 0,
					"hidden" : 0,
					"midpoints" : [ 415.5, 154.0, 439.5, 154.0 ],
					"source" : [ "obj-25", 2 ]
				}

			}
, 			{
				"patchline" : 				{
					"destination" : [ "obj-63", 0 ],
					"disabled" : 0,
					"hidden" : 0,
					"midpoints" : [ 429.0, 153.5, 462.5, 153.5 ],
					"source" : [ "obj-25", 3 ]
				}

			}
, 			{
				"patchline" : 				{
					"destination" : [ "obj-60", 0 ],
					"disabled" : 0,
					"hidden" : 0,
					"source" : [ "obj-26", 0 ]
				}

			}
, 			{
				"patchline" : 				{
					"destination" : [ "obj-10", 0 ],
					"disabled" : 0,
					"hidden" : 0,
					"midpoints" : [ 274.5, 476.997894, 282.632324, 476.997894 ],
					"source" : [ "obj-27", 0 ]
				}

			}
, 			{
				"patchline" : 				{
					"destination" : [ "obj-10", 0 ],
					"disabled" : 0,
					"hidden" : 0,
					"midpoints" : [ 374.5, 483.548248, 282.632324, 483.548248 ],
					"source" : [ "obj-28", 0 ]
				}

			}
, 			{
				"patchline" : 				{
					"destination" : [ "obj-35", 0 ],
					"disabled" : 0,
					"hidden" : 0,
					"midpoints" : [ 217.5, 265.0, 374.5, 265.0 ],
					"source" : [ "obj-3", 0 ]
				}

			}
, 			{
				"patchline" : 				{
					"destination" : [ "obj-36", 0 ],
					"disabled" : 0,
					"hidden" : 0,
					"midpoints" : [ 217.5, 259.0, 432.5, 259.0 ],
					"source" : [ "obj-3", 0 ]
				}

			}
, 			{
				"patchline" : 				{
					"destination" : [ "obj-8", 0 ],
					"disabled" : 0,
					"hidden" : 0,
					"midpoints" : [ 217.5, 282.0, 274.5, 282.0 ],
					"source" : [ "obj-3", 0 ]
				}

			}
, 			{
				"patchline" : 				{
					"destination" : [ "obj-27", 0 ],
					"disabled" : 0,
					"hidden" : 0,
					"midpoints" : [ 194.593506, 412.826752, 274.5, 412.826752 ],
					"source" : [ "obj-30", 0 ]
				}

			}
, 			{
				"patchline" : 				{
					"destination" : [ "obj-28", 0 ],
					"disabled" : 0,
					"hidden" : 0,
					"midpoints" : [ 194.593506, 404.190796, 374.5, 404.190796 ],
					"source" : [ "obj-30", 0 ]
				}

			}
, 			{
				"patchline" : 				{
					"destination" : [ "obj-68", 0 ],
					"disabled" : 0,
					"hidden" : 0,
					"midpoints" : [ 194.593506, 396.0, 432.5, 396.0 ],
					"source" : [ "obj-30", 0 ]
				}

			}
, 			{
				"patchline" : 				{
					"destination" : [ "obj-34", 0 ],
					"disabled" : 0,
					"hidden" : 0,
					"source" : [ "obj-31", 0 ]
				}

			}
, 			{
				"patchline" : 				{
					"destination" : [ "obj-27", 0 ],
					"disabled" : 0,
					"hidden" : 0,
					"midpoints" : [ 20.897659, 443.0, 274.5, 443.0 ],
					"source" : [ "obj-32", 0 ]
				}

			}
, 			{
				"patchline" : 				{
					"destination" : [ "obj-31", 0 ],
					"disabled" : 0,
					"hidden" : 0,
					"midpoints" : [ 20.897659, 342.39859, 33.961517, 342.39859 ],
					"source" : [ "obj-32", 0 ]
				}

			}
, 			{
				"patchline" : 				{
					"destination" : [ "obj-70", 0 ],
					"disabled" : 0,
					"hidden" : 0,
					"midpoints" : [ 20.897659, 336.0, 93.961517, 336.0 ],
					"source" : [ "obj-32", 0 ]
				}

			}
, 			{
				"patchline" : 				{
					"destination" : [ "obj-28", 0 ],
					"disabled" : 0,
					"hidden" : 0,
					"midpoints" : [ 33.961517, 431.0, 374.5, 431.0 ],
					"source" : [ "obj-34", 0 ]
				}

			}
, 			{
				"patchline" : 				{
					"destination" : [ "obj-67", 0 ],
					"disabled" : 0,
					"hidden" : 0,
					"source" : [ "obj-35", 0 ]
				}

			}
, 			{
				"patchline" : 				{
					"destination" : [ "obj-66", 0 ],
					"disabled" : 0,
					"hidden" : 0,
					"source" : [ "obj-36", 0 ]
				}

			}
, 			{
				"patchline" : 				{
					"destination" : [ "obj-12", 0 ],
					"disabled" : 0,
					"hidden" : 0,
					"source" : [ "obj-38", 0 ]
				}

			}
, 			{
				"patchline" : 				{
					"destination" : [ "obj-47", 0 ],
					"disabled" : 0,
					"hidden" : 0,
					"midpoints" : [ 612.485535, 345.86734, 612.649597, 345.86734 ],
					"source" : [ "obj-38", 1 ]
				}

			}
, 			{
				"patchline" : 				{
					"destination" : [ "obj-38", 0 ],
					"disabled" : 0,
					"hidden" : 0,
					"source" : [ "obj-40", 0 ]
				}

			}
, 			{
				"patchline" : 				{
					"destination" : [ "obj-35", 1 ],
					"disabled" : 0,
					"hidden" : 0,
					"midpoints" : [ 389.5, 251.0, 388.5, 251.0 ],
					"source" : [ "obj-41", 0 ]
				}

			}
, 			{
				"patchline" : 				{
					"destination" : [ "obj-35", 1 ],
					"disabled" : 0,
					"hidden" : 0,
					"midpoints" : [ 353.5, 253.5, 388.5, 253.5 ],
					"source" : [ "obj-42", 0 ]
				}

			}
, 			{
				"patchline" : 				{
					"destination" : [ "obj-36", 1 ],
					"disabled" : 0,
					"hidden" : 0,
					"midpoints" : [ 489.5, 259.5, 446.5, 259.5 ],
					"source" : [ "obj-43", 0 ]
				}

			}
, 			{
				"patchline" : 				{
					"destination" : [ "obj-36", 1 ],
					"disabled" : 0,
					"hidden" : 0,
					"midpoints" : [ 525.5, 267.0, 446.5, 267.0 ],
					"source" : [ "obj-44", 0 ]
				}

			}
, 			{
				"patchline" : 				{
					"destination" : [ "obj-36", 1 ],
					"disabled" : 0,
					"hidden" : 0,
					"midpoints" : [ 453.5, 250.0, 446.5, 250.0 ],
					"source" : [ "obj-46", 0 ]
				}

			}
, 			{
				"patchline" : 				{
					"destination" : [ "obj-52", 0 ],
					"disabled" : 0,
					"hidden" : 0,
					"source" : [ "obj-47", 0 ]
				}

			}
, 			{
				"patchline" : 				{
					"destination" : [ "obj-41", 0 ],
					"disabled" : 0,
					"hidden" : 0,
					"midpoints" : [ 388.5, 199.5, 389.5, 199.5 ],
					"source" : [ "obj-53", 0 ]
				}

			}
, 			{
				"patchline" : 				{
					"destination" : [ "obj-43", 0 ],
					"disabled" : 0,
					"hidden" : 0,
					"midpoints" : [ 388.5, 185.0, 489.5, 185.0 ],
					"source" : [ "obj-53", 0 ]
				}

			}
, 			{
				"patchline" : 				{
					"destination" : [ "obj-42", 0 ],
					"disabled" : 0,
					"hidden" : 0,
					"midpoints" : [ 413.5, 198.0, 353.5, 198.0 ],
					"source" : [ "obj-58", 0 ]
				}

			}
, 			{
				"patchline" : 				{
					"destination" : [ "obj-43", 0 ],
					"disabled" : 0,
					"hidden" : 0,
					"midpoints" : [ 413.5, 196.0, 489.5, 196.0 ],
					"source" : [ "obj-58", 0 ]
				}

			}
, 			{
				"patchline" : 				{
					"destination" : [ "obj-24", 0 ],
					"disabled" : 0,
					"hidden" : 0,
					"midpoints" : [ 388.5, 108.0, 460.0, 108.0, 460.0, 89.0, 505.5, 89.0 ],
					"source" : [ "obj-60", 0 ]
				}

			}
, 			{
				"patchline" : 				{
					"destination" : [ "obj-25", 0 ],
					"disabled" : 0,
					"hidden" : 0,
					"source" : [ "obj-60", 0 ]
				}

			}
, 			{
				"patchline" : 				{
					"destination" : [ "obj-38", 1 ],
					"disabled" : 0,
					"hidden" : 0,
					"midpoints" : [ 388.5, 114.0, 612.485535, 114.0 ],
					"source" : [ "obj-60", 0 ]
				}

			}
, 			{
				"patchline" : 				{
					"destination" : [ "obj-42", 0 ],
					"disabled" : 0,
					"hidden" : 0,
					"midpoints" : [ 439.5, 206.0, 353.5, 206.0 ],
					"source" : [ "obj-62", 0 ]
				}

			}
, 			{
				"patchline" : 				{
					"destination" : [ "obj-46", 0 ],
					"disabled" : 0,
					"hidden" : 0,
					"midpoints" : [ 439.5, 211.5, 453.5, 211.5 ],
					"source" : [ "obj-62", 0 ]
				}

			}
, 			{
				"patchline" : 				{
					"destination" : [ "obj-41", 0 ],
					"disabled" : 0,
					"hidden" : 0,
					"midpoints" : [ 462.5, 215.0, 389.5, 215.0 ],
					"source" : [ "obj-63", 0 ]
				}

			}
, 			{
				"patchline" : 				{
					"destination" : [ "obj-44", 0 ],
					"disabled" : 0,
					"hidden" : 0,
					"midpoints" : [ 462.5, 216.0, 525.5, 216.0 ],
					"source" : [ "obj-63", 0 ]
				}

			}
, 			{
				"patchline" : 				{
					"destination" : [ "obj-65", 0 ],
					"disabled" : 0,
					"hidden" : 0,
					"source" : [ "obj-64", 0 ]
				}

			}
, 			{
				"patchline" : 				{
					"destination" : [ "obj-68", 0 ],
					"disabled" : 0,
					"hidden" : 0,
					"source" : [ "obj-65", 0 ]
				}

			}
, 			{
				"patchline" : 				{
					"destination" : [ "obj-64", 0 ],
					"disabled" : 0,
					"hidden" : 0,
					"source" : [ "obj-66", 0 ]
				}

			}
, 			{
				"patchline" : 				{
					"destination" : [ "obj-19", 0 ],
					"disabled" : 0,
					"hidden" : 0,
					"source" : [ "obj-67", 0 ]
				}

			}
, 			{
				"patchline" : 				{
					"destination" : [ "obj-10", 0 ],
					"disabled" : 0,
					"hidden" : 0,
					"midpoints" : [ 432.5, 490.048248, 282.632324, 490.048248 ],
					"source" : [ "obj-68", 0 ]
				}

			}
, 			{
				"patchline" : 				{
					"destination" : [ "obj-68", 0 ],
					"disabled" : 0,
					"hidden" : 0,
					"midpoints" : [ 93.961517, 422.0, 432.5, 422.0 ],
					"source" : [ "obj-69", 0 ]
				}

			}
, 			{
				"patchline" : 				{
					"destination" : [ "obj-69", 0 ],
					"disabled" : 0,
					"hidden" : 0,
					"source" : [ "obj-70", 0 ]
				}

			}
, 			{
				"patchline" : 				{
					"destination" : [ "obj-40", 0 ],
					"disabled" : 0,
					"hidden" : 0,
					"source" : [ "obj-71", 0 ]
				}

			}
, 			{
				"patchline" : 				{
					"destination" : [ "obj-17", 0 ],
					"disabled" : 0,
					"hidden" : 0,
					"source" : [ "obj-8", 0 ]
				}

			}
, 			{
				"patchline" : 				{
					"destination" : [ "obj-11", 1 ],
					"disabled" : 0,
					"hidden" : 0,
					"midpoints" : [ 459.632324, 592.670105, 298.632324, 592.670105 ],
					"source" : [ "obj-9", 1 ]
				}

			}
, 			{
				"patchline" : 				{
					"destination" : [ "obj-11", 0 ],
					"disabled" : 0,
					"hidden" : 0,
					"source" : [ "obj-9", 0 ]
				}

			}
 ],
		"dependency_cache" : [ 			{
				"name" : "somepicture.png",
				"bootpath" : "~/Dropbox/source/Oxford/MMJ for Music/Chapter_Example_Patches(12-1-14)/Chapter Example Patches/Ch 05 Examples",
				"patcherrelativepath" : ".",
				"type" : "PNG ",
				"implicit" : 1
			}
 ],
		"embedsnapshot" : 0,
		"styles" : [ 			{
				"name" : "MMJforM",
				"number" : 				{
					"accentcolor" : [ 0.65098, 0.666667, 0.662745, 1.0 ],
					"bgcolor" : [ 0.32549, 0.345098, 0.372549, 1.0 ]
				}
,
				"newobj" : 				{
					"accentcolor" : [ 0.65098, 0.666667, 0.662745, 1.0 ],
					"bgcolor" : [ 0.32549, 0.345098, 0.372549, 1.0 ]
				}
,
				"button" : 				{
					"elementcolor" : [ 0.682032, 0.698052, 0.748716, 1.0 ],
					"color" : [ 1.0, 1.0, 1.0, 1.0 ],
					"bgcolor" : [ 0.32549, 0.345098, 0.372549, 1.0 ]
				}
,
				"default" : 				{
					"elementcolor" : [ 0.682032, 0.698052, 0.748716, 1.0 ],
					"color" : [ 1.0, 1.0, 1.0, 1.0 ],
					"bgfillcolor" : 					{
						"type" : "color",
						"color" : [ 0.32549, 0.345098, 0.372549, 1.0 ],
						"color1" : [ 0.862745, 0.870588, 0.878431, 1.0 ],
						"color2" : [ 0.290196, 0.309804, 0.301961, 1.0 ],
						"angle" : 270.0,
						"proportion" : 0.39,
						"autogradient" : 0
					}
,
					"patchlinecolor" : [ 0.32549, 0.345098, 0.372549, 0.9 ],
					"bgcolor" : [ 0.311041, 0.314599, 0.318357, 1.0 ]
				}
,
				"slider" : 				{
					"elementcolor" : [ 0.317141, 0.341132, 0.336206, 1.0 ],
					"color" : [ 0.862745, 0.870588, 0.878431, 1.0 ],
					"bgcolor" : [ 0.32549, 0.345098, 0.372549, 1.0 ]
				}
,
				"kslider" : 				{
					"color" : [ 1.0, 1.0, 1.0, 1.0 ]
				}
,
				"message" : 				{
					"bgfillcolor" : 					{
						"type" : "color",
						"color" : [ 0.32549, 0.345098, 0.372549, 1.0 ],
						"color1" : [ 0.862745, 0.870588, 0.878431, 1.0 ],
						"color2" : [ 0.290196, 0.309804, 0.301961, 1.0 ],
						"angle" : 270.0,
						"proportion" : 0.39,
						"autogradient" : 0
					}

				}
,
				"parentstyle" : "",
				"multi" : 0
			}
 ]
	}

}
