{
	"patcher" : 	{
		"fileversion" : 1,
		"rect" : [ 242.0, 71.0, 1038.0, 777.0 ],
		"bglocked" : 0,
		"defrect" : [ 242.0, 71.0, 1038.0, 777.0 ],
		"openrect" : [ 0.0, 0.0, 0.0, 0.0 ],
		"openinpresentation" : 0,
		"default_fontsize" : 12.0,
		"default_fontface" : 0,
		"default_fontname" : "Arial",
		"gridonopen" : 0,
		"gridsize" : [ 15.0, 15.0 ],
		"gridsnaponopen" : 0,
		"toolbarvisible" : 1,
		"boxanimatetime" : 200,
		"imprint" : 0,
		"enablehscroll" : 1,
		"enablevscroll" : 1,
		"devicewidth" : 0.0,
		"boxes" : [ 			{
				"box" : 				{
					"maxclass" : "comment",
					"text" : "created by V.J. Manzo",
					"id" : "obj-23",
					"fontname" : "Arial",
					"numinlets" : 1,
					"fontsize" : 10.0,
					"numoutlets" : 0,
					"frgb" : [ 0.0, 0.192157, 0.513726, 1.0 ],
					"patching_rect" : [ 250.399994, 740.299988, 114.0, 18.0 ],
					"textcolor" : [ 0.0, 0.192157, 0.513726, 1.0 ]
				}

			}
, 			{
				"box" : 				{
					"maxclass" : "newobj",
					"text" : "p launchURL",
					"id" : "obj-24",
					"fontname" : "Arial",
					"numinlets" : 1,
					"hidden" : 1,
					"fontsize" : 9.0,
					"numoutlets" : 0,
					"patching_rect" : [ 254.399994, 798.200073, 62.0, 17.0 ],
					"patcher" : 					{
						"fileversion" : 1,
						"rect" : [ 15.0, 55.0, 600.0, 426.0 ],
						"bglocked" : 0,
						"defrect" : [ 15.0, 55.0, 600.0, 426.0 ],
						"openrect" : [ 0.0, 0.0, 0.0, 0.0 ],
						"openinpresentation" : 0,
						"default_fontsize" : 12.0,
						"default_fontface" : 0,
						"default_fontname" : "Arial",
						"gridonopen" : 0,
						"gridsize" : [ 15.0, 15.0 ],
						"gridsnaponopen" : 0,
						"toolbarvisible" : 1,
						"boxanimatetime" : 200,
						"imprint" : 0,
						"enablehscroll" : 1,
						"enablevscroll" : 1,
						"devicewidth" : 0.0,
						"boxes" : [ 							{
								"box" : 								{
									"maxclass" : "newobj",
									"text" : "t b s",
									"id" : "obj-1",
									"fontname" : "Arial",
									"numinlets" : 1,
									"fontsize" : 9.0,
									"numoutlets" : 2,
									"patching_rect" : [ 50.0, 50.0, 27.0, 17.0 ],
									"outlettype" : [ "bang", "" ]
								}

							}
, 							{
								"box" : 								{
									"maxclass" : "message",
									"text" : ";\rmax launch_browser http://www.vincemanzo.com",
									"linecount" : 2,
									"id" : "obj-2",
									"fontname" : "Arial",
									"numinlets" : 2,
									"fontsize" : 9.0,
									"numoutlets" : 1,
									"patching_rect" : [ 67.0, 108.0, 344.0, 25.0 ],
									"outlettype" : [ "" ]
								}

							}
, 							{
								"box" : 								{
									"maxclass" : "newobj",
									"text" : "sprintf set \\; max launch_browser %s",
									"id" : "obj-3",
									"fontname" : "Arial",
									"numinlets" : 1,
									"fontsize" : 9.0,
									"numoutlets" : 1,
									"patching_rect" : [ 67.0, 79.0, 164.0, 17.0 ],
									"outlettype" : [ "" ]
								}

							}
, 							{
								"box" : 								{
									"maxclass" : "inlet",
									"id" : "obj-4",
									"numinlets" : 0,
									"numoutlets" : 1,
									"patching_rect" : [ 50.0, 30.0, 15.0, 15.0 ],
									"outlettype" : [ "" ],
									"comment" : ""
								}

							}
 ],
						"lines" : [ 							{
								"patchline" : 								{
									"source" : [ "obj-4", 0 ],
									"destination" : [ "obj-1", 0 ],
									"hidden" : 0,
									"midpoints" : [  ]
								}

							}
, 							{
								"patchline" : 								{
									"source" : [ "obj-1", 1 ],
									"destination" : [ "obj-3", 0 ],
									"hidden" : 0,
									"midpoints" : [  ]
								}

							}
, 							{
								"patchline" : 								{
									"source" : [ "obj-3", 0 ],
									"destination" : [ "obj-2", 0 ],
									"hidden" : 0,
									"midpoints" : [  ]
								}

							}
, 							{
								"patchline" : 								{
									"source" : [ "obj-1", 0 ],
									"destination" : [ "obj-2", 0 ],
									"hidden" : 0,
									"midpoints" : [ 59.5, 102.0, 76.5, 102.0 ]
								}

							}
 ]
					}
,
					"saved_object_attributes" : 					{
						"fontname" : "Arial",
						"default_fontface" : 0,
						"default_fontname" : "Arial",
						"globalpatchername" : "",
						"fontface" : 0,
						"fontsize" : 12.0,
						"default_fontsize" : 12.0
					}

				}

			}
, 			{
				"box" : 				{
					"maxclass" : "message",
					"text" : "http://www.vincemanzo.com",
					"id" : "obj-26",
					"fontname" : "Arial",
					"numinlets" : 2,
					"fontsize" : 10.0,
					"numoutlets" : 1,
					"patching_rect" : [ 229.399994, 757.200012, 165.0, 16.0 ],
					"bgcolor" : [ 0.792157, 0.898039, 1.0, 1.0 ],
					"gradient" : 1,
					"outlettype" : [ "" ],
					"bgcolor2" : [ 1.0, 1.0, 1.0, 1.0 ]
				}

			}
, 			{
				"box" : 				{
					"maxclass" : "comment",
					"text" : "(c) 2009 V.J. Manzo vj@vjmanzo.com",
					"linecount" : 2,
					"id" : "obj-119",
					"fontname" : "Arial",
					"numinlets" : 1,
					"fontsize" : 10.0,
					"numoutlets" : 0,
					"patching_rect" : [ 249.399994, 777.200073, 121.0, 29.0 ]
				}

			}
, 			{
				"box" : 				{
					"maxclass" : "comment",
					"text" : "receive gated int (0 or 1)",
					"id" : "obj-22",
					"fontname" : "Arial",
					"numinlets" : 1,
					"fontsize" : 12.0,
					"numoutlets" : 0,
					"patching_rect" : [ 655.0, 32.0, 150.0, 20.0 ]
				}

			}
, 			{
				"box" : 				{
					"maxclass" : "comment",
					"text" : "start calculation",
					"id" : "obj-17",
					"fontname" : "Arial",
					"numinlets" : 1,
					"fontsize" : 12.0,
					"numoutlets" : 0,
					"patching_rect" : [ 399.0, 35.0, 150.0, 20.0 ]
				}

			}
, 			{
				"box" : 				{
					"maxclass" : "inlet",
					"id" : "obj-9",
					"numinlets" : 0,
					"numoutlets" : 1,
					"patching_rect" : [ 389.0, 7.0, 25.0, 25.0 ],
					"outlettype" : [ "" ],
					"comment" : "start calculation"
				}

			}
, 			{
				"box" : 				{
					"maxclass" : "inlet",
					"varname" : "vj.buffer.cropper",
					"id" : "obj-11",
					"numinlets" : 0,
					"numoutlets" : 1,
					"patching_rect" : [ 647.0, 7.0, 25.0, 25.0 ],
					"outlettype" : [ "" ],
					"comment" : "receive gated int (0 or 1)"
				}

			}
, 			{
				"box" : 				{
					"maxclass" : "newobj",
					"text" : "loadbang",
					"id" : "obj-7",
					"fontname" : "Arial",
					"numinlets" : 1,
					"fontsize" : 12.0,
					"numoutlets" : 1,
					"patching_rect" : [ 522.0, 280.0, 60.0, 20.0 ],
					"outlettype" : [ "bang" ]
				}

			}
, 			{
				"box" : 				{
					"maxclass" : "newobj",
					"text" : "loadbang",
					"id" : "obj-4",
					"fontname" : "Arial",
					"numinlets" : 1,
					"fontsize" : 12.0,
					"numoutlets" : 1,
					"patching_rect" : [ 121.0, 552.0, 60.0, 20.0 ],
					"outlettype" : [ "bang" ]
				}

			}
, 			{
				"box" : 				{
					"maxclass" : "inlet",
					"id" : "obj-3",
					"numinlets" : 0,
					"numoutlets" : 1,
					"patching_rect" : [ 934.0, 18.0, 25.0, 25.0 ],
					"outlettype" : [ "" ],
					"comment" : "adds back some of the buffer's silence at the beginning to avoid pops"
				}

			}
, 			{
				"box" : 				{
					"maxclass" : "inlet",
					"id" : "obj-1",
					"numinlets" : 0,
					"numoutlets" : 1,
					"patching_rect" : [ 904.0, 18.0, 25.0, 25.0 ],
					"outlettype" : [ "" ],
					"comment" : "adds back some of the buffer's silence at the end to avoid pops"
				}

			}
, 			{
				"box" : 				{
					"maxclass" : "inlet",
					"id" : "obj-2",
					"numinlets" : 0,
					"numoutlets" : 1,
					"patching_rect" : [ 866.0, 18.0, 25.0, 25.0 ],
					"outlettype" : [ "" ],
					"comment" : "how much silence will pass (in ms.) before the object knows the sound has ended"
				}

			}
, 			{
				"box" : 				{
					"maxclass" : "newobj",
					"text" : "loadmess 70",
					"id" : "obj-25",
					"fontname" : "Arial",
					"numinlets" : 1,
					"fontsize" : 12.0,
					"numoutlets" : 1,
					"patching_rect" : [ 904.0, 751.0, 79.0, 20.0 ],
					"outlettype" : [ "" ]
				}

			}
, 			{
				"box" : 				{
					"maxclass" : "comment",
					"text" : "adds back some of the buffer's extra space at the end to avoid pops",
					"linecount" : 3,
					"id" : "obj-18",
					"fontname" : "Arial",
					"numinlets" : 1,
					"fontsize" : 12.0,
					"numoutlets" : 0,
					"patching_rect" : [ 984.0, 752.0, 184.0, 48.0 ]
				}

			}
, 			{
				"box" : 				{
					"maxclass" : "number",
					"id" : "obj-12",
					"fontname" : "Arial",
					"numinlets" : 1,
					"fontsize" : 12.0,
					"numoutlets" : 2,
					"patching_rect" : [ 904.0, 779.0, 69.0, 20.0 ],
					"outlettype" : [ "int", "bang" ]
				}

			}
, 			{
				"box" : 				{
					"maxclass" : "newobj",
					"text" : "+ 0",
					"id" : "obj-8",
					"fontname" : "Arial",
					"numinlets" : 2,
					"fontsize" : 12.0,
					"numoutlets" : 1,
					"patching_rect" : [ 661.0, 801.0, 32.5, 20.0 ],
					"outlettype" : [ "int" ]
				}

			}
, 			{
				"box" : 				{
					"maxclass" : "number",
					"id" : "obj-6",
					"fontname" : "Arial",
					"numinlets" : 1,
					"fontsize" : 12.0,
					"numoutlets" : 2,
					"patching_rect" : [ 661.0, 772.0, 59.0, 20.0 ],
					"outlettype" : [ "int", "bang" ]
				}

			}
, 			{
				"box" : 				{
					"maxclass" : "number",
					"id" : "obj-345",
					"fontname" : "Arial",
					"numinlets" : 1,
					"fontsize" : 12.0,
					"numoutlets" : 2,
					"patching_rect" : [ 661.0, 749.0, 221.0, 20.0 ],
					"outlettype" : [ "int", "bang" ]
				}

			}
, 			{
				"box" : 				{
					"maxclass" : "newobj",
					"text" : "-",
					"id" : "obj-344",
					"fontname" : "Arial",
					"numinlets" : 2,
					"fontsize" : 12.0,
					"numoutlets" : 1,
					"patching_rect" : [ 661.0, 725.0, 32.5, 20.0 ],
					"outlettype" : [ "int" ]
				}

			}
, 			{
				"box" : 				{
					"maxclass" : "newobj",
					"text" : "loadmess 300",
					"id" : "obj-342",
					"fontname" : "Arial",
					"numinlets" : 1,
					"fontsize" : 12.0,
					"numoutlets" : 1,
					"patching_rect" : [ 866.0, 440.0, 85.0, 20.0 ],
					"outlettype" : [ "" ]
				}

			}
, 			{
				"box" : 				{
					"maxclass" : "number",
					"id" : "obj-341",
					"fontname" : "Arial",
					"numinlets" : 1,
					"fontsize" : 12.0,
					"numoutlets" : 2,
					"patching_rect" : [ 866.0, 472.0, 50.0, 20.0 ],
					"outlettype" : [ "int", "bang" ]
				}

			}
, 			{
				"box" : 				{
					"maxclass" : "newobj",
					"text" : "t i b 0",
					"id" : "obj-339",
					"fontname" : "Arial",
					"numinlets" : 1,
					"fontsize" : 12.0,
					"numoutlets" : 3,
					"patching_rect" : [ 389.0, 278.0, 46.0, 20.0 ],
					"outlettype" : [ "int", "bang", "int" ]
				}

			}
, 			{
				"box" : 				{
					"maxclass" : "button",
					"id" : "obj-338",
					"numinlets" : 1,
					"numoutlets" : 1,
					"patching_rect" : [ 41.0, 706.0, 20.0, 20.0 ],
					"outlettype" : [ "bang" ]
				}

			}
, 			{
				"box" : 				{
					"maxclass" : "message",
					"text" : "prepend crop",
					"id" : "obj-336",
					"fontname" : "Arial",
					"numinlets" : 2,
					"fontsize" : 11.595187,
					"numoutlets" : 1,
					"patching_rect" : [ 41.0, 737.0, 79.0, 18.0 ],
					"outlettype" : [ "" ]
				}

			}
, 			{
				"box" : 				{
					"maxclass" : "newobj",
					"text" : "prepend set",
					"id" : "obj-334",
					"fontname" : "Arial",
					"numinlets" : 1,
					"fontsize" : 12.0,
					"numoutlets" : 1,
					"patching_rect" : [ 121.0, 689.0, 74.0, 20.0 ],
					"outlettype" : [ "" ]
				}

			}
, 			{
				"box" : 				{
					"maxclass" : "newobj",
					"text" : "pack",
					"id" : "obj-333",
					"fontname" : "Arial",
					"numinlets" : 2,
					"fontsize" : 12.0,
					"numoutlets" : 1,
					"patching_rect" : [ 121.0, 666.0, 36.0, 20.0 ],
					"outlettype" : [ "" ]
				}

			}
, 			{
				"box" : 				{
					"maxclass" : "message",
					"text" : "0",
					"id" : "obj-332",
					"fontname" : "Arial",
					"numinlets" : 2,
					"fontsize" : 12.0,
					"numoutlets" : 1,
					"patching_rect" : [ 522.0, 370.0, 32.5, 18.0 ],
					"outlettype" : [ "" ]
				}

			}
, 			{
				"box" : 				{
					"maxclass" : "button",
					"id" : "obj-330",
					"numinlets" : 1,
					"numoutlets" : 1,
					"patching_rect" : [ 121.0, 608.0, 20.0, 20.0 ],
					"outlettype" : [ "bang" ]
				}

			}
, 			{
				"box" : 				{
					"maxclass" : "newobj",
					"text" : "pv buffer_crop_begin",
					"id" : "obj-328",
					"fontname" : "Arial",
					"numinlets" : 1,
					"fontsize" : 12.0,
					"numoutlets" : 1,
					"patching_rect" : [ 121.0, 638.0, 123.0, 20.0 ],
					"outlettype" : [ "" ]
				}

			}
, 			{
				"box" : 				{
					"maxclass" : "newobj",
					"text" : "pv buffer_crop_end",
					"id" : "obj-327",
					"fontname" : "Arial",
					"numinlets" : 1,
					"fontsize" : 12.0,
					"numoutlets" : 1,
					"patching_rect" : [ 251.0, 638.0, 114.0, 20.0 ],
					"outlettype" : [ "" ]
				}

			}
, 			{
				"box" : 				{
					"maxclass" : "newobj",
					"text" : "pv buffer_crop_end",
					"id" : "obj-326",
					"fontname" : "Arial",
					"numinlets" : 1,
					"fontsize" : 12.0,
					"numoutlets" : 1,
					"patching_rect" : [ 661.0, 824.0, 114.0, 20.0 ],
					"outlettype" : [ "" ]
				}

			}
, 			{
				"box" : 				{
					"maxclass" : "number",
					"id" : "obj-325",
					"fontname" : "Arial",
					"numinlets" : 1,
					"fontsize" : 12.0,
					"numoutlets" : 2,
					"patching_rect" : [ 661.0, 696.0, 221.0, 20.0 ],
					"outlettype" : [ "int", "bang" ]
				}

			}
, 			{
				"box" : 				{
					"maxclass" : "newobj",
					"text" : "+",
					"id" : "obj-323",
					"fontname" : "Arial",
					"numinlets" : 2,
					"fontsize" : 12.0,
					"numoutlets" : 1,
					"patching_rect" : [ 661.0, 662.0, 32.5, 20.0 ],
					"outlettype" : [ "int" ]
				}

			}
, 			{
				"box" : 				{
					"maxclass" : "newobj",
					"text" : "pv buffer_crop_begin",
					"id" : "obj-320",
					"fontname" : "Arial",
					"numinlets" : 1,
					"fontsize" : 12.0,
					"numoutlets" : 1,
					"patching_rect" : [ 389.0, 702.0, 123.0, 20.0 ],
					"outlettype" : [ "" ]
				}

			}
, 			{
				"box" : 				{
					"maxclass" : "number",
					"id" : "obj-319",
					"fontname" : "Arial",
					"numinlets" : 1,
					"minimum" : 0,
					"fontsize" : 12.0,
					"numoutlets" : 2,
					"patching_rect" : [ 389.0, 640.0, 91.0, 20.0 ],
					"outlettype" : [ "int", "bang" ]
				}

			}
, 			{
				"box" : 				{
					"maxclass" : "comment",
					"text" : "sample rollback",
					"id" : "obj-317",
					"fontname" : "Arial",
					"numinlets" : 1,
					"fontsize" : 12.0,
					"numoutlets" : 0,
					"patching_rect" : [ 431.0, 611.0, 119.0, 20.0 ]
				}

			}
, 			{
				"box" : 				{
					"maxclass" : "newobj",
					"text" : "- 100",
					"id" : "obj-316",
					"fontname" : "Arial",
					"numinlets" : 2,
					"fontsize" : 12.0,
					"numoutlets" : 1,
					"patching_rect" : [ 389.0, 612.0, 38.0, 20.0 ],
					"outlettype" : [ "int" ]
				}

			}
, 			{
				"box" : 				{
					"maxclass" : "comment",
					"text" : "beginning until audible sound in",
					"linecount" : 2,
					"id" : "obj-315",
					"fontname" : "Arial",
					"numinlets" : 1,
					"fontsize" : 12.0,
					"numoutlets" : 0,
					"patching_rect" : [ 481.0, 566.0, 119.0, 34.0 ]
				}

			}
, 			{
				"box" : 				{
					"maxclass" : "number",
					"id" : "obj-313",
					"fontname" : "Arial",
					"numinlets" : 1,
					"fontsize" : 12.0,
					"numoutlets" : 2,
					"patching_rect" : [ 389.0, 566.0, 91.0, 20.0 ],
					"outlettype" : [ "int", "bang" ]
				}

			}
, 			{
				"box" : 				{
					"maxclass" : "newobj",
					"text" : "peak",
					"id" : "obj-314",
					"fontname" : "Arial",
					"numinlets" : 2,
					"fontsize" : 12.0,
					"numoutlets" : 3,
					"patching_rect" : [ 389.0, 540.0, 46.0, 20.0 ],
					"outlettype" : [ "int", "int", "int" ]
				}

			}
, 			{
				"box" : 				{
					"maxclass" : "newobj",
					"text" : "sel 1",
					"id" : "obj-312",
					"fontname" : "Arial",
					"numinlets" : 2,
					"fontsize" : 12.0,
					"numoutlets" : 2,
					"patching_rect" : [ 389.0, 324.0, 36.0, 20.0 ],
					"outlettype" : [ "bang", "" ]
				}

			}
, 			{
				"box" : 				{
					"maxclass" : "number",
					"id" : "obj-311",
					"fontname" : "Arial",
					"numinlets" : 1,
					"fontsize" : 12.0,
					"numoutlets" : 2,
					"patching_rect" : [ 389.0, 505.0, 50.0, 20.0 ],
					"outlettype" : [ "int", "bang" ]
				}

			}
, 			{
				"box" : 				{
					"maxclass" : "button",
					"id" : "obj-304",
					"numinlets" : 1,
					"numoutlets" : 1,
					"patching_rect" : [ 448.0, 353.0, 20.0, 20.0 ],
					"outlettype" : [ "bang" ]
				}

			}
, 			{
				"box" : 				{
					"maxclass" : "newobj",
					"text" : "t 1 0 b",
					"id" : "obj-305",
					"fontname" : "Arial",
					"numinlets" : 1,
					"fontsize" : 12.0,
					"numoutlets" : 3,
					"patching_rect" : [ 389.0, 385.0, 46.0, 20.0 ],
					"outlettype" : [ "int", "int", "bang" ]
				}

			}
, 			{
				"box" : 				{
					"maxclass" : "button",
					"id" : "obj-307",
					"numinlets" : 1,
					"numoutlets" : 1,
					"patching_rect" : [ 389.0, 354.0, 20.0, 20.0 ],
					"outlettype" : [ "bang" ]
				}

			}
, 			{
				"box" : 				{
					"maxclass" : "newobj",
					"text" : "t 0 0",
					"id" : "obj-308",
					"fontname" : "Arial",
					"numinlets" : 1,
					"fontsize" : 12.0,
					"numoutlets" : 2,
					"patching_rect" : [ 448.0, 384.0, 34.0, 20.0 ],
					"outlettype" : [ "int", "int" ]
				}

			}
, 			{
				"box" : 				{
					"maxclass" : "newobj",
					"text" : "metro 1",
					"id" : "obj-309",
					"fontname" : "Arial",
					"numinlets" : 2,
					"fontsize" : 12.0,
					"numoutlets" : 1,
					"patching_rect" : [ 389.0, 420.0, 51.0, 20.0 ],
					"outlettype" : [ "bang" ]
				}

			}
, 			{
				"box" : 				{
					"maxclass" : "newobj",
					"text" : "counter 0 0 10000000",
					"id" : "obj-310",
					"fontname" : "Arial",
					"numinlets" : 5,
					"fontsize" : 9.0,
					"numoutlets" : 4,
					"patching_rect" : [ 389.0, 452.0, 98.0, 17.0 ],
					"outlettype" : [ "int", "", "", "int" ]
				}

			}
, 			{
				"box" : 				{
					"maxclass" : "comment",
					"text" : "duration of audible sample",
					"id" : "obj-302",
					"fontname" : "Arial",
					"numinlets" : 1,
					"fontsize" : 12.0,
					"numoutlets" : 0,
					"patching_rect" : [ 874.0, 580.0, 150.0, 20.0 ]
				}

			}
, 			{
				"box" : 				{
					"maxclass" : "button",
					"id" : "obj-284",
					"numinlets" : 1,
					"numoutlets" : 1,
					"patching_rect" : [ 779.0, 552.0, 20.0, 20.0 ],
					"outlettype" : [ "bang" ]
				}

			}
, 			{
				"box" : 				{
					"maxclass" : "button",
					"id" : "obj-257",
					"numinlets" : 1,
					"numoutlets" : 1,
					"patching_rect" : [ 761.0, 551.0, 20.0, 20.0 ],
					"outlettype" : [ "bang" ]
				}

			}
, 			{
				"box" : 				{
					"maxclass" : "newobj",
					"text" : "sel 0 1",
					"id" : "obj-253",
					"fontname" : "Arial",
					"numinlets" : 1,
					"fontsize" : 12.0,
					"numoutlets" : 3,
					"patching_rect" : [ 761.0, 524.0, 46.0, 20.0 ],
					"outlettype" : [ "bang", "bang", "" ]
				}

			}
, 			{
				"box" : 				{
					"maxclass" : "message",
					"text" : "0",
					"id" : "obj-10",
					"fontname" : "Arial",
					"numinlets" : 2,
					"fontsize" : 12.0,
					"numoutlets" : 1,
					"patching_rect" : [ 719.0, 275.0, 32.5, 18.0 ],
					"outlettype" : [ "" ]
				}

			}
, 			{
				"box" : 				{
					"maxclass" : "newobj",
					"text" : "t b 0 b",
					"id" : "obj-306",
					"fontname" : "Arial",
					"numinlets" : 1,
					"fontsize" : 12.0,
					"numoutlets" : 3,
					"patching_rect" : [ 812.0, 525.0, 46.0, 20.0 ],
					"outlettype" : [ "bang", "int", "bang" ]
				}

			}
, 			{
				"box" : 				{
					"maxclass" : "newobj",
					"text" : "> 300",
					"id" : "obj-301",
					"fontname" : "Arial",
					"numinlets" : 2,
					"fontsize" : 12.0,
					"numoutlets" : 1,
					"patching_rect" : [ 812.0, 496.0, 41.0, 20.0 ],
					"outlettype" : [ "int" ]
				}

			}
, 			{
				"box" : 				{
					"maxclass" : "toggle",
					"id" : "obj-300",
					"numinlets" : 1,
					"numoutlets" : 1,
					"patching_rect" : [ 724.0, 227.0, 20.0, 20.0 ],
					"outlettype" : [ "int" ]
				}

			}
, 			{
				"box" : 				{
					"maxclass" : "newobj",
					"text" : "gate 1",
					"id" : "obj-298",
					"fontname" : "Arial",
					"numinlets" : 2,
					"fontsize" : 12.0,
					"numoutlets" : 1,
					"patching_rect" : [ 755.0, 253.0, 44.0, 20.0 ],
					"outlettype" : [ "" ]
				}

			}
, 			{
				"box" : 				{
					"maxclass" : "number",
					"id" : "obj-297",
					"fontname" : "Arial",
					"numinlets" : 1,
					"fontsize" : 12.0,
					"numoutlets" : 2,
					"patching_rect" : [ 812.0, 445.0, 50.0, 20.0 ],
					"outlettype" : [ "int", "bang" ]
				}

			}
, 			{
				"box" : 				{
					"maxclass" : "button",
					"id" : "obj-291",
					"numinlets" : 1,
					"numoutlets" : 1,
					"patching_rect" : [ 863.0, 274.0, 20.0, 20.0 ],
					"outlettype" : [ "bang" ]
				}

			}
, 			{
				"box" : 				{
					"maxclass" : "newobj",
					"text" : "t 1 0 b",
					"id" : "obj-292",
					"fontname" : "Arial",
					"numinlets" : 1,
					"fontsize" : 12.0,
					"numoutlets" : 3,
					"patching_rect" : [ 797.0, 306.0, 46.0, 20.0 ],
					"outlettype" : [ "int", "int", "bang" ]
				}

			}
, 			{
				"box" : 				{
					"maxclass" : "button",
					"id" : "obj-293",
					"numinlets" : 1,
					"numoutlets" : 1,
					"patching_rect" : [ 797.0, 278.0, 20.0, 20.0 ],
					"outlettype" : [ "bang" ]
				}

			}
, 			{
				"box" : 				{
					"maxclass" : "newobj",
					"text" : "t 0 0",
					"id" : "obj-294",
					"fontname" : "Arial",
					"numinlets" : 1,
					"fontsize" : 12.0,
					"numoutlets" : 2,
					"patching_rect" : [ 863.0, 305.0, 34.0, 20.0 ],
					"outlettype" : [ "int", "int" ]
				}

			}
, 			{
				"box" : 				{
					"maxclass" : "newobj",
					"text" : "metro 1",
					"id" : "obj-295",
					"fontname" : "Arial",
					"numinlets" : 2,
					"fontsize" : 12.0,
					"numoutlets" : 1,
					"patching_rect" : [ 812.0, 341.0, 51.0, 20.0 ],
					"outlettype" : [ "bang" ]
				}

			}
, 			{
				"box" : 				{
					"maxclass" : "newobj",
					"text" : "counter 0 0 10000000",
					"id" : "obj-296",
					"fontname" : "Arial",
					"numinlets" : 5,
					"fontsize" : 9.0,
					"numoutlets" : 4,
					"patching_rect" : [ 812.0, 373.0, 98.0, 17.0 ],
					"outlettype" : [ "int", "", "", "int" ]
				}

			}
, 			{
				"box" : 				{
					"maxclass" : "message",
					"text" : "0",
					"id" : "obj-290",
					"fontname" : "Arial",
					"numinlets" : 2,
					"fontsize" : 12.0,
					"numoutlets" : 1,
					"patching_rect" : [ 583.0, 204.0, 32.5, 18.0 ],
					"outlettype" : [ "" ]
				}

			}
, 			{
				"box" : 				{
					"maxclass" : "message",
					"text" : "1",
					"id" : "obj-288",
					"fontname" : "Arial",
					"numinlets" : 2,
					"fontsize" : 12.0,
					"numoutlets" : 1,
					"patching_rect" : [ 616.0, 205.0, 32.5, 18.0 ],
					"outlettype" : [ "" ]
				}

			}
, 			{
				"box" : 				{
					"maxclass" : "newobj",
					"text" : "t b b b",
					"id" : "obj-286",
					"fontname" : "Arial",
					"numinlets" : 1,
					"fontsize" : 12.0,
					"numoutlets" : 3,
					"patching_rect" : [ 583.0, 162.0, 46.0, 20.0 ],
					"outlettype" : [ "bang", "bang", "bang" ]
				}

			}
, 			{
				"box" : 				{
					"maxclass" : "toggle",
					"id" : "obj-285",
					"numinlets" : 1,
					"numoutlets" : 1,
					"patching_rect" : [ 621.0, 231.0, 20.0, 20.0 ],
					"outlettype" : [ "int" ]
				}

			}
, 			{
				"box" : 				{
					"maxclass" : "newobj",
					"text" : "gate 1",
					"id" : "obj-283",
					"fontname" : "Arial",
					"numinlets" : 2,
					"fontsize" : 12.0,
					"numoutlets" : 1,
					"patching_rect" : [ 647.0, 261.0, 44.0, 20.0 ],
					"outlettype" : [ "" ]
				}

			}
, 			{
				"box" : 				{
					"maxclass" : "message",
					"text" : "0",
					"id" : "obj-255",
					"fontname" : "Arial",
					"numinlets" : 2,
					"fontsize" : 12.0,
					"numoutlets" : 1,
					"patching_rect" : [ 731.0, 202.0, 32.5, 18.0 ],
					"outlettype" : [ "" ]
				}

			}
, 			{
				"box" : 				{
					"maxclass" : "message",
					"text" : "1",
					"id" : "obj-256",
					"fontname" : "Arial",
					"numinlets" : 2,
					"fontsize" : 12.0,
					"numoutlets" : 1,
					"patching_rect" : [ 692.0, 204.0, 32.5, 18.0 ],
					"outlettype" : [ "" ]
				}

			}
, 			{
				"box" : 				{
					"maxclass" : "button",
					"id" : "obj-258",
					"numinlets" : 1,
					"numoutlets" : 1,
					"patching_rect" : [ 729.0, 112.0, 20.0, 20.0 ],
					"outlettype" : [ "bang" ]
				}

			}
, 			{
				"box" : 				{
					"maxclass" : "button",
					"id" : "obj-259",
					"numinlets" : 1,
					"numoutlets" : 1,
					"patching_rect" : [ 617.0, 112.0, 20.0, 20.0 ],
					"outlettype" : [ "bang" ]
				}

			}
, 			{
				"box" : 				{
					"maxclass" : "newobj",
					"text" : "sel 0 1",
					"id" : "obj-269",
					"fontname" : "Arial",
					"numinlets" : 1,
					"fontsize" : 9.0,
					"numoutlets" : 3,
					"patching_rect" : [ 647.0, 66.0, 40.0, 17.0 ],
					"outlettype" : [ "bang", "bang", "" ]
				}

			}
, 			{
				"box" : 				{
					"maxclass" : "message",
					"text" : "crop 0 0",
					"id" : "obj-67",
					"fontname" : "Arial",
					"numinlets" : 2,
					"fontsize" : 11.595187,
					"numoutlets" : 1,
					"patching_rect" : [ 121.0, 769.0, 91.0, 18.0 ],
					"outlettype" : [ "" ]
				}

			}
, 			{
				"box" : 				{
					"maxclass" : "button",
					"id" : "obj-61",
					"numinlets" : 1,
					"numoutlets" : 1,
					"patching_rect" : [ 719.0, 344.0, 20.0, 20.0 ],
					"outlettype" : [ "bang" ]
				}

			}
, 			{
				"box" : 				{
					"maxclass" : "newobj",
					"text" : "t 1 0 b",
					"id" : "obj-60",
					"fontname" : "Arial",
					"numinlets" : 1,
					"fontsize" : 12.0,
					"numoutlets" : 3,
					"patching_rect" : [ 645.0, 376.0, 46.0, 20.0 ],
					"outlettype" : [ "int", "int", "bang" ]
				}

			}
, 			{
				"box" : 				{
					"maxclass" : "number",
					"id" : "obj-59",
					"fontname" : "Arial",
					"numinlets" : 1,
					"fontsize" : 12.0,
					"numoutlets" : 2,
					"patching_rect" : [ 661.0, 580.0, 213.0, 20.0 ],
					"outlettype" : [ "int", "bang" ]
				}

			}
, 			{
				"box" : 				{
					"maxclass" : "newobj",
					"text" : "peak",
					"id" : "obj-58",
					"fontname" : "Arial",
					"numinlets" : 2,
					"fontsize" : 12.0,
					"numoutlets" : 3,
					"patching_rect" : [ 660.0, 548.0, 46.0, 20.0 ],
					"outlettype" : [ "int", "int", "int" ]
				}

			}
, 			{
				"box" : 				{
					"maxclass" : "button",
					"id" : "obj-55",
					"numinlets" : 1,
					"numoutlets" : 1,
					"patching_rect" : [ 645.0, 345.0, 20.0, 20.0 ],
					"outlettype" : [ "bang" ]
				}

			}
, 			{
				"box" : 				{
					"maxclass" : "newobj",
					"text" : "t 0 0",
					"id" : "obj-53",
					"fontname" : "Arial",
					"numinlets" : 1,
					"fontsize" : 12.0,
					"numoutlets" : 2,
					"patching_rect" : [ 719.0, 375.0, 34.0, 20.0 ],
					"outlettype" : [ "int", "int" ]
				}

			}
, 			{
				"box" : 				{
					"maxclass" : "number",
					"id" : "obj-21",
					"fontname" : "Arial",
					"numinlets" : 1,
					"fontsize" : 12.0,
					"numoutlets" : 2,
					"patching_rect" : [ 660.0, 516.0, 50.0, 20.0 ],
					"outlettype" : [ "int", "bang" ]
				}

			}
, 			{
				"box" : 				{
					"maxclass" : "newobj",
					"text" : "metro 1",
					"id" : "obj-19",
					"fontname" : "Arial",
					"numinlets" : 2,
					"fontsize" : 12.0,
					"numoutlets" : 1,
					"patching_rect" : [ 660.0, 411.0, 51.0, 20.0 ],
					"outlettype" : [ "bang" ]
				}

			}
, 			{
				"box" : 				{
					"maxclass" : "newobj",
					"text" : "counter 0 0 10000000",
					"id" : "obj-16",
					"fontname" : "Arial",
					"numinlets" : 5,
					"fontsize" : 9.0,
					"numoutlets" : 4,
					"patching_rect" : [ 660.0, 443.0, 98.0, 17.0 ],
					"outlettype" : [ "int", "", "", "int" ]
				}

			}
, 			{
				"box" : 				{
					"maxclass" : "outlet",
					"id" : "obj-27",
					"numinlets" : 1,
					"numoutlets" : 0,
					"patching_rect" : [ 121.0, 808.0, 25.0, 25.0 ],
					"comment" : ""
				}

			}
 ],
		"lines" : [ 			{
				"patchline" : 				{
					"source" : [ "obj-11", 0 ],
					"destination" : [ "obj-269", 0 ],
					"hidden" : 0,
					"midpoints" : [  ]
				}

			}
, 			{
				"patchline" : 				{
					"source" : [ "obj-9", 0 ],
					"destination" : [ "obj-339", 0 ],
					"hidden" : 0,
					"midpoints" : [  ]
				}

			}
, 			{
				"patchline" : 				{
					"source" : [ "obj-3", 0 ],
					"destination" : [ "obj-316", 1 ],
					"hidden" : 0,
					"midpoints" : [ 943.5, 60.0, 374.0, 60.0, 374.0, 597.0, 417.5, 597.0 ]
				}

			}
, 			{
				"patchline" : 				{
					"source" : [ "obj-1", 0 ],
					"destination" : [ "obj-12", 0 ],
					"hidden" : 0,
					"midpoints" : [  ]
				}

			}
, 			{
				"patchline" : 				{
					"source" : [ "obj-2", 0 ],
					"destination" : [ "obj-341", 0 ],
					"hidden" : 0,
					"midpoints" : [  ]
				}

			}
, 			{
				"patchline" : 				{
					"source" : [ "obj-8", 0 ],
					"destination" : [ "obj-326", 0 ],
					"hidden" : 0,
					"midpoints" : [  ]
				}

			}
, 			{
				"patchline" : 				{
					"source" : [ "obj-319", 0 ],
					"destination" : [ "obj-320", 0 ],
					"hidden" : 0,
					"midpoints" : [  ]
				}

			}
, 			{
				"patchline" : 				{
					"source" : [ "obj-330", 0 ],
					"destination" : [ "obj-327", 0 ],
					"hidden" : 0,
					"midpoints" : [ 130.5, 634.0, 260.5, 634.0 ]
				}

			}
, 			{
				"patchline" : 				{
					"source" : [ "obj-327", 0 ],
					"destination" : [ "obj-333", 1 ],
					"hidden" : 0,
					"midpoints" : [ 260.5, 670.0, 157.0, 670.0, 157.0, 661.0, 147.5, 661.0 ]
				}

			}
, 			{
				"patchline" : 				{
					"source" : [ "obj-330", 0 ],
					"destination" : [ "obj-328", 0 ],
					"hidden" : 0,
					"midpoints" : [  ]
				}

			}
, 			{
				"patchline" : 				{
					"source" : [ "obj-328", 0 ],
					"destination" : [ "obj-333", 0 ],
					"hidden" : 0,
					"midpoints" : [  ]
				}

			}
, 			{
				"patchline" : 				{
					"source" : [ "obj-339", 2 ],
					"destination" : [ "obj-58", 1 ],
					"hidden" : 0,
					"midpoints" : [ 425.5, 310.0, 631.0, 310.0, 631.0, 544.0, 696.5, 544.0 ]
				}

			}
, 			{
				"patchline" : 				{
					"source" : [ "obj-339", 2 ],
					"destination" : [ "obj-314", 1 ],
					"hidden" : 0,
					"midpoints" : [  ]
				}

			}
, 			{
				"patchline" : 				{
					"source" : [ "obj-60", 2 ],
					"destination" : [ "obj-304", 0 ],
					"hidden" : 0,
					"midpoints" : [ 681.5, 397.0, 583.0, 397.0, 583.0, 349.0, 457.5, 349.0 ]
				}

			}
, 			{
				"patchline" : 				{
					"source" : [ "obj-284", 0 ],
					"destination" : [ "obj-330", 0 ],
					"hidden" : 0,
					"midpoints" : [ 788.5, 574.0, 721.0, 574.0, 721.0, 481.0, 346.0, 481.0, 346.0, 595.0, 130.5, 595.0 ]
				}

			}
, 			{
				"patchline" : 				{
					"source" : [ "obj-25", 0 ],
					"destination" : [ "obj-12", 0 ],
					"hidden" : 0,
					"midpoints" : [  ]
				}

			}
, 			{
				"patchline" : 				{
					"source" : [ "obj-12", 0 ],
					"destination" : [ "obj-8", 1 ],
					"hidden" : 0,
					"midpoints" : [ 913.5, 805.0, 748.0, 805.0, 748.0, 799.0, 684.0, 799.0 ]
				}

			}
, 			{
				"patchline" : 				{
					"source" : [ "obj-6", 0 ],
					"destination" : [ "obj-8", 0 ],
					"hidden" : 0,
					"midpoints" : [  ]
				}

			}
, 			{
				"patchline" : 				{
					"source" : [ "obj-345", 0 ],
					"destination" : [ "obj-6", 0 ],
					"hidden" : 0,
					"midpoints" : [  ]
				}

			}
, 			{
				"patchline" : 				{
					"source" : [ "obj-10", 0 ],
					"destination" : [ "obj-291", 0 ],
					"hidden" : 0,
					"midpoints" : [ 728.5, 304.0, 784.0, 304.0, 784.0, 274.0, 859.0, 274.0, 859.0, 271.0, 872.5, 271.0 ]
				}

			}
, 			{
				"patchline" : 				{
					"source" : [ "obj-10", 0 ],
					"destination" : [ "obj-61", 0 ],
					"hidden" : 0,
					"midpoints" : [  ]
				}

			}
, 			{
				"patchline" : 				{
					"source" : [ "obj-16", 0 ],
					"destination" : [ "obj-21", 0 ],
					"hidden" : 0,
					"midpoints" : [  ]
				}

			}
, 			{
				"patchline" : 				{
					"source" : [ "obj-53", 0 ],
					"destination" : [ "obj-16", 3 ],
					"hidden" : 0,
					"midpoints" : [  ]
				}

			}
, 			{
				"patchline" : 				{
					"source" : [ "obj-53", 1 ],
					"destination" : [ "obj-19", 0 ],
					"hidden" : 0,
					"midpoints" : [ 743.5, 406.0, 669.5, 406.0 ]
				}

			}
, 			{
				"patchline" : 				{
					"source" : [ "obj-19", 0 ],
					"destination" : [ "obj-16", 0 ],
					"hidden" : 0,
					"midpoints" : [  ]
				}

			}
, 			{
				"patchline" : 				{
					"source" : [ "obj-21", 0 ],
					"destination" : [ "obj-58", 0 ],
					"hidden" : 0,
					"midpoints" : [  ]
				}

			}
, 			{
				"patchline" : 				{
					"source" : [ "obj-58", 0 ],
					"destination" : [ "obj-59", 0 ],
					"hidden" : 0,
					"midpoints" : [  ]
				}

			}
, 			{
				"patchline" : 				{
					"source" : [ "obj-60", 0 ],
					"destination" : [ "obj-19", 0 ],
					"hidden" : 0,
					"midpoints" : [  ]
				}

			}
, 			{
				"patchline" : 				{
					"source" : [ "obj-60", 1 ],
					"destination" : [ "obj-58", 1 ],
					"hidden" : 0,
					"midpoints" : [ 668.0, 407.0, 646.0, 407.0, 646.0, 545.0, 696.5, 545.0 ]
				}

			}
, 			{
				"patchline" : 				{
					"source" : [ "obj-61", 0 ],
					"destination" : [ "obj-53", 0 ],
					"hidden" : 0,
					"midpoints" : [  ]
				}

			}
, 			{
				"patchline" : 				{
					"source" : [ "obj-55", 0 ],
					"destination" : [ "obj-60", 0 ],
					"hidden" : 0,
					"midpoints" : [  ]
				}

			}
, 			{
				"patchline" : 				{
					"source" : [ "obj-269", 0 ],
					"destination" : [ "obj-259", 0 ],
					"hidden" : 0,
					"midpoints" : [ 656.5, 99.0, 626.5, 99.0 ]
				}

			}
, 			{
				"patchline" : 				{
					"source" : [ "obj-269", 1 ],
					"destination" : [ "obj-258", 0 ],
					"hidden" : 0,
					"midpoints" : [ 667.0, 108.0, 738.5, 108.0 ]
				}

			}
, 			{
				"patchline" : 				{
					"source" : [ "obj-285", 0 ],
					"destination" : [ "obj-283", 0 ],
					"hidden" : 0,
					"midpoints" : [ 630.5, 258.0, 656.5, 258.0 ]
				}

			}
, 			{
				"patchline" : 				{
					"source" : [ "obj-283", 0 ],
					"destination" : [ "obj-55", 0 ],
					"hidden" : 0,
					"midpoints" : [  ]
				}

			}
, 			{
				"patchline" : 				{
					"source" : [ "obj-259", 0 ],
					"destination" : [ "obj-286", 0 ],
					"hidden" : 0,
					"midpoints" : [ 626.5, 147.0, 592.5, 147.0 ]
				}

			}
, 			{
				"patchline" : 				{
					"source" : [ "obj-286", 1 ],
					"destination" : [ "obj-283", 1 ],
					"hidden" : 0,
					"midpoints" : [ 606.0, 184.0, 678.0, 184.0, 678.0, 256.0, 681.5, 256.0 ]
				}

			}
, 			{
				"patchline" : 				{
					"source" : [ "obj-286", 2 ],
					"destination" : [ "obj-288", 0 ],
					"hidden" : 0,
					"midpoints" : [ 619.5, 198.0, 625.5, 198.0 ]
				}

			}
, 			{
				"patchline" : 				{
					"source" : [ "obj-288", 0 ],
					"destination" : [ "obj-285", 0 ],
					"hidden" : 0,
					"midpoints" : [ 625.5, 223.0, 630.5, 223.0 ]
				}

			}
, 			{
				"patchline" : 				{
					"source" : [ "obj-286", 0 ],
					"destination" : [ "obj-290", 0 ],
					"hidden" : 0,
					"midpoints" : [ 592.5, 183.0, 592.5, 183.0 ]
				}

			}
, 			{
				"patchline" : 				{
					"source" : [ "obj-290", 0 ],
					"destination" : [ "obj-285", 0 ],
					"hidden" : 0,
					"midpoints" : [ 592.5, 227.0, 630.5, 227.0 ]
				}

			}
, 			{
				"patchline" : 				{
					"source" : [ "obj-293", 0 ],
					"destination" : [ "obj-292", 0 ],
					"hidden" : 0,
					"midpoints" : [  ]
				}

			}
, 			{
				"patchline" : 				{
					"source" : [ "obj-291", 0 ],
					"destination" : [ "obj-294", 0 ],
					"hidden" : 0,
					"midpoints" : [  ]
				}

			}
, 			{
				"patchline" : 				{
					"source" : [ "obj-292", 0 ],
					"destination" : [ "obj-295", 0 ],
					"hidden" : 0,
					"midpoints" : [  ]
				}

			}
, 			{
				"patchline" : 				{
					"source" : [ "obj-295", 0 ],
					"destination" : [ "obj-296", 0 ],
					"hidden" : 0,
					"midpoints" : [  ]
				}

			}
, 			{
				"patchline" : 				{
					"source" : [ "obj-294", 1 ],
					"destination" : [ "obj-295", 0 ],
					"hidden" : 0,
					"midpoints" : [  ]
				}

			}
, 			{
				"patchline" : 				{
					"source" : [ "obj-294", 0 ],
					"destination" : [ "obj-296", 3 ],
					"hidden" : 0,
					"midpoints" : [  ]
				}

			}
, 			{
				"patchline" : 				{
					"source" : [ "obj-259", 0 ],
					"destination" : [ "obj-291", 0 ],
					"hidden" : 0,
					"midpoints" : [ 626.5, 147.0, 716.0, 147.0, 716.0, 189.0, 872.5, 189.0 ]
				}

			}
, 			{
				"patchline" : 				{
					"source" : [ "obj-296", 0 ],
					"destination" : [ "obj-297", 0 ],
					"hidden" : 0,
					"midpoints" : [  ]
				}

			}
, 			{
				"patchline" : 				{
					"source" : [ "obj-258", 0 ],
					"destination" : [ "obj-298", 1 ],
					"hidden" : 0,
					"midpoints" : [ 738.5, 189.0, 789.5, 189.0 ]
				}

			}
, 			{
				"patchline" : 				{
					"source" : [ "obj-298", 0 ],
					"destination" : [ "obj-293", 0 ],
					"hidden" : 0,
					"midpoints" : [  ]
				}

			}
, 			{
				"patchline" : 				{
					"source" : [ "obj-300", 0 ],
					"destination" : [ "obj-298", 0 ],
					"hidden" : 0,
					"midpoints" : [ 733.5, 249.0, 764.5, 249.0 ]
				}

			}
, 			{
				"patchline" : 				{
					"source" : [ "obj-256", 0 ],
					"destination" : [ "obj-300", 0 ],
					"hidden" : 0,
					"midpoints" : [ 701.5, 223.0, 733.5, 223.0 ]
				}

			}
, 			{
				"patchline" : 				{
					"source" : [ "obj-286", 0 ],
					"destination" : [ "obj-256", 0 ],
					"hidden" : 0,
					"midpoints" : [ 592.5, 183.0, 701.5, 183.0 ]
				}

			}
, 			{
				"patchline" : 				{
					"source" : [ "obj-255", 0 ],
					"destination" : [ "obj-300", 0 ],
					"hidden" : 0,
					"midpoints" : [ 740.5, 220.0, 733.5, 220.0 ]
				}

			}
, 			{
				"patchline" : 				{
					"source" : [ "obj-286", 2 ],
					"destination" : [ "obj-255", 0 ],
					"hidden" : 0,
					"midpoints" : [ 619.5, 183.0, 740.5, 183.0 ]
				}

			}
, 			{
				"patchline" : 				{
					"source" : [ "obj-306", 2 ],
					"destination" : [ "obj-255", 0 ],
					"hidden" : 0,
					"midpoints" : [ 848.5, 553.0, 934.0, 553.0, 934.0, 180.0, 740.5, 180.0 ]
				}

			}
, 			{
				"patchline" : 				{
					"source" : [ "obj-253", 1 ],
					"destination" : [ "obj-284", 0 ],
					"hidden" : 0,
					"midpoints" : [  ]
				}

			}
, 			{
				"patchline" : 				{
					"source" : [ "obj-253", 0 ],
					"destination" : [ "obj-257", 0 ],
					"hidden" : 0,
					"midpoints" : [  ]
				}

			}
, 			{
				"patchline" : 				{
					"source" : [ "obj-284", 0 ],
					"destination" : [ "obj-61", 0 ],
					"hidden" : 0,
					"midpoints" : [ 788.5, 573.0, 751.0, 573.0, 751.0, 335.0, 728.5, 335.0 ]
				}

			}
, 			{
				"patchline" : 				{
					"source" : [ "obj-301", 0 ],
					"destination" : [ "obj-253", 0 ],
					"hidden" : 0,
					"midpoints" : [ 821.5, 517.0, 770.5, 517.0 ]
				}

			}
, 			{
				"patchline" : 				{
					"source" : [ "obj-301", 0 ],
					"destination" : [ "obj-306", 0 ],
					"hidden" : 0,
					"midpoints" : [  ]
				}

			}
, 			{
				"patchline" : 				{
					"source" : [ "obj-297", 0 ],
					"destination" : [ "obj-301", 0 ],
					"hidden" : 0,
					"midpoints" : [  ]
				}

			}
, 			{
				"patchline" : 				{
					"source" : [ "obj-307", 0 ],
					"destination" : [ "obj-305", 0 ],
					"hidden" : 0,
					"midpoints" : [  ]
				}

			}
, 			{
				"patchline" : 				{
					"source" : [ "obj-304", 0 ],
					"destination" : [ "obj-308", 0 ],
					"hidden" : 0,
					"midpoints" : [  ]
				}

			}
, 			{
				"patchline" : 				{
					"source" : [ "obj-305", 0 ],
					"destination" : [ "obj-309", 0 ],
					"hidden" : 0,
					"midpoints" : [  ]
				}

			}
, 			{
				"patchline" : 				{
					"source" : [ "obj-309", 0 ],
					"destination" : [ "obj-310", 0 ],
					"hidden" : 0,
					"midpoints" : [  ]
				}

			}
, 			{
				"patchline" : 				{
					"source" : [ "obj-308", 1 ],
					"destination" : [ "obj-309", 0 ],
					"hidden" : 0,
					"midpoints" : [ 472.5, 415.0, 398.5, 415.0 ]
				}

			}
, 			{
				"patchline" : 				{
					"source" : [ "obj-308", 0 ],
					"destination" : [ "obj-310", 3 ],
					"hidden" : 0,
					"midpoints" : [  ]
				}

			}
, 			{
				"patchline" : 				{
					"source" : [ "obj-310", 0 ],
					"destination" : [ "obj-311", 0 ],
					"hidden" : 0,
					"midpoints" : [  ]
				}

			}
, 			{
				"patchline" : 				{
					"source" : [ "obj-312", 0 ],
					"destination" : [ "obj-307", 0 ],
					"hidden" : 0,
					"midpoints" : [  ]
				}

			}
, 			{
				"patchline" : 				{
					"source" : [ "obj-314", 0 ],
					"destination" : [ "obj-313", 0 ],
					"hidden" : 0,
					"midpoints" : [  ]
				}

			}
, 			{
				"patchline" : 				{
					"source" : [ "obj-311", 0 ],
					"destination" : [ "obj-314", 0 ],
					"hidden" : 0,
					"midpoints" : [  ]
				}

			}
, 			{
				"patchline" : 				{
					"source" : [ "obj-313", 0 ],
					"destination" : [ "obj-323", 1 ],
					"hidden" : 0,
					"midpoints" : [ 398.5, 598.0, 376.0, 598.0, 376.0, 670.0, 586.0, 670.0, 586.0, 649.0, 684.0, 649.0 ]
				}

			}
, 			{
				"patchline" : 				{
					"source" : [ "obj-59", 0 ],
					"destination" : [ "obj-323", 0 ],
					"hidden" : 0,
					"midpoints" : [  ]
				}

			}
, 			{
				"patchline" : 				{
					"source" : [ "obj-323", 0 ],
					"destination" : [ "obj-325", 0 ],
					"hidden" : 0,
					"midpoints" : [  ]
				}

			}
, 			{
				"patchline" : 				{
					"source" : [ "obj-332", 0 ],
					"destination" : [ "obj-313", 0 ],
					"hidden" : 0,
					"midpoints" : [ 531.5, 553.0, 436.0, 553.0, 436.0, 562.0, 398.5, 562.0 ]
				}

			}
, 			{
				"patchline" : 				{
					"source" : [ "obj-332", 0 ],
					"destination" : [ "obj-323", 0 ],
					"hidden" : 0,
					"midpoints" : [ 531.5, 553.0, 646.0, 553.0, 646.0, 649.0, 670.5, 649.0 ]
				}

			}
, 			{
				"patchline" : 				{
					"source" : [ "obj-332", 0 ],
					"destination" : [ "obj-314", 1 ],
					"hidden" : 0,
					"midpoints" : [ 531.5, 535.0, 425.5, 535.0 ]
				}

			}
, 			{
				"patchline" : 				{
					"source" : [ "obj-332", 0 ],
					"destination" : [ "obj-58", 1 ],
					"hidden" : 0,
					"midpoints" : [ 531.5, 544.0, 696.5, 544.0 ]
				}

			}
, 			{
				"patchline" : 				{
					"source" : [ "obj-333", 0 ],
					"destination" : [ "obj-334", 0 ],
					"hidden" : 0,
					"midpoints" : [  ]
				}

			}
, 			{
				"patchline" : 				{
					"source" : [ "obj-334", 0 ],
					"destination" : [ "obj-67", 0 ],
					"hidden" : 0,
					"midpoints" : [  ]
				}

			}
, 			{
				"patchline" : 				{
					"source" : [ "obj-336", 0 ],
					"destination" : [ "obj-67", 0 ],
					"hidden" : 0,
					"midpoints" : [ 50.5, 762.0, 130.5, 762.0 ]
				}

			}
, 			{
				"patchline" : 				{
					"source" : [ "obj-338", 0 ],
					"destination" : [ "obj-336", 0 ],
					"hidden" : 0,
					"midpoints" : [  ]
				}

			}
, 			{
				"patchline" : 				{
					"source" : [ "obj-334", 0 ],
					"destination" : [ "obj-338", 0 ],
					"hidden" : 0,
					"midpoints" : [  ]
				}

			}
, 			{
				"patchline" : 				{
					"source" : [ "obj-332", 0 ],
					"destination" : [ "obj-10", 0 ],
					"hidden" : 0,
					"midpoints" : [ 531.5, 427.0, 631.0, 427.0, 631.0, 292.0, 706.0, 292.0, 706.0, 271.0, 728.5, 271.0 ]
				}

			}
, 			{
				"patchline" : 				{
					"source" : [ "obj-341", 0 ],
					"destination" : [ "obj-301", 1 ],
					"hidden" : 0,
					"midpoints" : [ 875.5, 493.0, 843.5, 493.0 ]
				}

			}
, 			{
				"patchline" : 				{
					"source" : [ "obj-342", 0 ],
					"destination" : [ "obj-341", 0 ],
					"hidden" : 0,
					"midpoints" : [  ]
				}

			}
, 			{
				"patchline" : 				{
					"source" : [ "obj-325", 0 ],
					"destination" : [ "obj-344", 0 ],
					"hidden" : 0,
					"midpoints" : [  ]
				}

			}
, 			{
				"patchline" : 				{
					"source" : [ "obj-341", 0 ],
					"destination" : [ "obj-344", 1 ],
					"hidden" : 0,
					"midpoints" : [ 875.5, 726.0, 684.0, 726.0 ]
				}

			}
, 			{
				"patchline" : 				{
					"source" : [ "obj-344", 0 ],
					"destination" : [ "obj-345", 0 ],
					"hidden" : 0,
					"midpoints" : [  ]
				}

			}
, 			{
				"patchline" : 				{
					"source" : [ "obj-316", 0 ],
					"destination" : [ "obj-319", 0 ],
					"hidden" : 0,
					"midpoints" : [  ]
				}

			}
, 			{
				"patchline" : 				{
					"source" : [ "obj-313", 0 ],
					"destination" : [ "obj-316", 0 ],
					"hidden" : 0,
					"midpoints" : [  ]
				}

			}
, 			{
				"patchline" : 				{
					"source" : [ "obj-339", 1 ],
					"destination" : [ "obj-332", 0 ],
					"hidden" : 0,
					"midpoints" : [ 412.0, 310.0, 531.5, 310.0 ]
				}

			}
, 			{
				"patchline" : 				{
					"source" : [ "obj-339", 0 ],
					"destination" : [ "obj-312", 0 ],
					"hidden" : 0,
					"midpoints" : [  ]
				}

			}
, 			{
				"patchline" : 				{
					"source" : [ "obj-339", 2 ],
					"destination" : [ "obj-310", 3 ],
					"hidden" : 0,
					"midpoints" : [ 425.5, 310.0, 493.0, 310.0, 493.0, 439.0, 457.75, 439.0 ]
				}

			}
, 			{
				"patchline" : 				{
					"source" : [ "obj-339", 2 ],
					"destination" : [ "obj-16", 3 ],
					"hidden" : 0,
					"midpoints" : [ 425.5, 310.0, 706.0, 310.0, 706.0, 406.0, 728.75, 406.0 ]
				}

			}
, 			{
				"patchline" : 				{
					"source" : [ "obj-334", 0 ],
					"destination" : [ "obj-27", 0 ],
					"hidden" : 0,
					"midpoints" : [  ]
				}

			}
, 			{
				"patchline" : 				{
					"source" : [ "obj-336", 0 ],
					"destination" : [ "obj-27", 0 ],
					"hidden" : 0,
					"midpoints" : [ 50.5, 804.0, 130.5, 804.0 ]
				}

			}
, 			{
				"patchline" : 				{
					"source" : [ "obj-4", 0 ],
					"destination" : [ "obj-330", 0 ],
					"hidden" : 0,
					"midpoints" : [  ]
				}

			}
, 			{
				"patchline" : 				{
					"source" : [ "obj-7", 0 ],
					"destination" : [ "obj-332", 0 ],
					"hidden" : 0,
					"midpoints" : [  ]
				}

			}
, 			{
				"patchline" : 				{
					"source" : [ "obj-26", 0 ],
					"destination" : [ "obj-24", 0 ],
					"hidden" : 1,
					"midpoints" : [ 238.899994, 800.200073, 263.899994, 800.200073 ]
				}

			}
 ]
	}

}
